<?xml version="1.0" encoding="UTF-8" standalone="no"?><!DOCTYPE svg PUBLIC "-//W3C//DTD SVG 1.1//EN" "http://www.w3.org/Graphics/SVG/1.1/DTD/svg11.dtd"><svg width="100%" height="100%" viewBox="0 0 1063 288" version="1.1" xmlns="http://www.w3.org/2000/svg" xmlns:xlink="http://www.w3.org/1999/xlink" xml:space="preserve" xmlns:serif="http://www.serif.com/" style="fill-rule:evenodd;clip-rule:evenodd;stroke-linejoin:round;stroke-miterlimit:2;"><g><path d="M464.246,8.333c0,-4.602 3.729,-8.333 8.333,-8.333l116.667,0c4.604,0 8.333,3.731 8.333,8.333l0,116.667c0,4.603 -3.729,8.333 -8.333,8.333l-116.667,0c-4.604,0 -8.333,-3.731 -8.333,-8.333l0,-116.667Z" style="fill:#0278fe;fill-rule:nonzero;"/><rect x="464.246" y="25" width="133.333" height="8.333" style="fill:#2a2c2f;fill-rule:nonzero;"/><rect x="510.079" y="25" width="8.333" height="108.333" style="fill:#2a2c2f;fill-rule:nonzero;"/><path d="M494.713,286.434l3.492,-11.6l20.004,0l3.492,11.6l17.758,0l-20.004,-60.606l-22.492,0l-20.004,60.606l17.754,0Zm7.221,-23.911l6.038,-20.005l0.475,0l6.037,20.005l-12.55,0Z" style="fill:#2a2c2f;fill-rule:nonzero;"/><path d="M545.296,286.434l16.454,0l0,-20.005l5.679,0l10.654,20.005l17.875,0l-12.312,-22.609c6.454,-3.107 10.3,-8.996 10.3,-17.4c0,-12.903 -9.025,-20.597 -22.492,-20.597l-26.158,0l0,60.606Zm16.454,-32.789l0,-14.678l5.8,0c5.771,0 9.233,2.249 9.233,7.457c0,5.179 -3.462,7.221 -9.233,7.221l-5.8,0Z" style="fill:#2a2c2f;fill-rule:nonzero;"/><path d="M599.304,239.085l18.229,0l0,47.349l16.217,0l0,-47.349l18.229,0l0,-13.257l-52.675,0l0,13.257Z" style="fill:#2a2c2f;fill-rule:nonzero;"/><path d="M714.129,245.833l16.629,0c-1.271,-12.163 -12.308,-20.833 -26.633,-20.833c-16.333,0 -29.592,11.245 -29.592,31.25c0,19.176 12.017,31.013 29.712,31.013c15.862,0 27.225,-9.706 27.225,-26.278l0,-8.404l-26.871,0l0,11.719l11.008,0c-0.146,5.267 -3.875,8.641 -11.246,8.641c-8.521,0 -12.9,-6.273 -12.9,-16.927c0,-10.505 4.733,-16.69 13.021,-16.69c5.146,0 8.642,2.367 9.646,6.51Z" style="fill:#2a2c2f;fill-rule:nonzero;"/><path d="M753.013,286.434l3.492,-11.6l20.008,0l3.492,11.6l17.754,0l-20.004,-60.606l-22.492,0l-20.004,60.606l17.754,0Zm7.221,-23.911l6.038,-20.005l0.475,0l6.037,20.005l-12.55,0Z" style="fill:#2a2c2f;fill-rule:nonzero;"/><path d="M803.596,286.434l40.958,0l0,-13.258l-24.504,0l0,-47.349l-16.454,0l0,60.606Z" style="fill:#2a2c2f;fill-rule:nonzero;"/><path d="M851.204,286.434l40.954,0l0,-13.258l-24.5,0l0,-47.349l-16.454,0l0,60.606Z" style="fill:#2a2c2f;fill-rule:nonzero;"/><path d="M898.813,286.434l43.558,0l0,-13.258l-27.108,0l0,-10.417l24.979,0l0,-13.258l-24.979,0l0,-10.417l27.225,0l0,-13.257l-43.675,0l0,60.606Z" style="fill:#2a2c2f;fill-rule:nonzero;"/><path d="M950.65,286.434l16.454,0l0,-20.005l5.679,0l10.654,20.005l17.875,0l-12.312,-22.609c6.454,-3.107 10.3,-8.996 10.3,-17.4c0,-12.903 -9.025,-20.597 -22.492,-20.597l-26.158,0l0,60.606Zm16.454,-32.789l0,-14.678l5.8,0c5.771,0 9.233,2.249 9.233,7.457c0,5.179 -3.462,7.221 -9.233,7.221l-5.8,0Z" style="fill:#2a2c2f;fill-rule:nonzero;"/><path d="M1000.979,225.828l22.254,41.548l0,19.058l16.333,0l0,-19.058l22.254,-41.548l-18.346,0l-11.838,24.621l-0.475,0l-11.833,-24.621l-18.35,0Z" style="fill:#2a2c2f;fill-rule:nonzero;"/><path d="M454.4,225.828l0,60.606l-13.733,0l-21.896,-31.842l-0.354,0l0,31.842l-16.455,0l0,-60.606l13.968,0l21.542,31.723l0.475,0l0,-31.723l16.454,0Z" style="fill:#2a2c2f;fill-rule:nonzero;"/><path d="M350.126,286.434l0,-60.606l43.679,0l0,13.257l-27.225,0l0,10.417l24.976,0l0,13.258l-24.976,0l0,10.417l27.107,0l0,13.258l-43.56,0Z" style="fill:#2a2c2f;fill-rule:nonzero;"/><path d="M291.26,239.085l0,-13.257l52.675,0l0,13.257l-18.229,0l0,47.348l-16.217,0l0,-47.348l-18.229,0Z" style="fill:#2a2c2f;fill-rule:nonzero;"/><path d="M241.077,286.434l0,-60.606l43.679,0l0,13.257l-27.225,0l0,10.417l24.976,0l0,13.258l-24.976,0l0,10.417l27.107,0l0,13.258l-43.56,0Z" style="fill:#2a2c2f;fill-rule:nonzero;"/><path d="M193.467,286.434l0,-60.606l16.454,0l0,47.348l24.503,0l0,13.258l-40.957,0Z" style="fill:#2a2c2f;fill-rule:nonzero;"/><path d="M138.78,286.434l0,-60.606l26.16,0c4.498,0 8.434,0.888 11.807,2.663c3.374,1.776 5.998,4.271 7.872,7.487c1.874,3.216 2.811,6.974 2.811,11.275c0,4.34 -0.967,8.098 -2.9,11.275c-1.914,3.176 -4.607,5.623 -8.079,7.339c-3.453,1.716 -7.487,2.575 -12.103,2.575l-15.625,0l0,-12.784l12.31,0c1.933,0 3.581,-0.335 4.942,-1.006c1.381,-0.69 2.437,-1.667 3.166,-2.93c0.75,-1.263 1.125,-2.752 1.125,-4.468c0,-1.736 -0.375,-3.216 -1.125,-4.439c-0.73,-1.243 -1.785,-2.19 -3.166,-2.841c-1.361,-0.671 -3.009,-1.006 -4.942,-1.006l-5.8,0l0,47.467l-16.454,0Z" style="fill:#2a2c2f;fill-rule:nonzero;"/><rect x="114.53" y="225.828" width="16.454" height="60.606" style="fill:#2a2c2f;fill-rule:nonzero;"/><path d="M58.866,286.434l0,-60.606l26.16,0c4.498,0 8.434,0.819 11.807,2.456c3.374,1.637 5.998,3.995 7.872,7.073c1.874,3.077 2.811,6.767 2.811,11.067c0,4.34 -0.967,8 -2.9,10.979c-1.914,2.979 -4.607,5.228 -8.079,6.747c-3.453,1.519 -7.487,2.279 -12.103,2.279l-15.625,0l0,-12.784l12.31,0c1.933,0 3.581,-0.237 4.942,-0.71c1.381,-0.493 2.437,-1.273 3.166,-2.338c0.75,-1.065 1.125,-2.456 1.125,-4.173c0,-1.736 -0.375,-3.147 -1.125,-4.232c-0.73,-1.105 -1.785,-1.914 -3.166,-2.427c-1.361,-0.533 -3.009,-0.799 -4.942,-0.799l-5.8,0l0,47.467l-16.454,0Zm35.511,-27.817l15.152,27.817l-17.874,0l-14.796,-27.817l17.519,0Z" style="fill:#2a2c2f;fill-rule:nonzero;"/><path d="M0,239.085l0,-13.257l52.675,0l0,13.257l-18.229,0l0,47.348l-16.217,0l0,-47.348l-18.229,0Z" style="fill:#2a2c2f;fill-rule:nonzero;"/></g></svg>